<svg id="Layer_1" data-name="Layer 1" xmlns="http://www.w3.org/2000/svg" viewBox="0 0 204.48 86.56"><defs><style>.cls-1{fill:#fff;stroke:#fff;stroke-miterlimit:10;stroke-width:6px;}.cls-2{fill:#d7d8d9;}.cls-3{fill:#1b13f2;}.cls-4{fill:none;stroke:#000;stroke-linecap:round;stroke-linejoin:round;stroke-width:0.25px;stroke-dasharray:1 13 1000;}</style></defs><path d="M25.24,7.58q7.23,0,11.14,3.94t3.9,11.28v.44a21.24,21.24,0,0,1-.77,6.06,14.61,14.61,0,0,1-2.07,4.42,9.28,9.28,0,0,1-3.09,2.79,8.44,8.44,0,0,1-3.74,1.06v.62a7.63,7.63,0,0,1,3.86,1.11,11.28,11.28,0,0,1,3.37,3.05A16.7,16.7,0,0,1,40.24,47a18.5,18.5,0,0,1,.94,6.14v1.07q0,7.24-4.19,11.28t-11.67,4H10.76V7.58ZM23.86,33.5h1.22c.86,0,1.43-.2,1.7-.62a4.51,4.51,0,0,0,.41-2.3V19.26a4.8,4.8,0,0,0-.41-2.34,1.83,1.83,0,0,0-1.7-.67H23.86Zm0,27.34h1.3A2,2,0,0,0,27,60.13a4.78,4.78,0,0,0,.44-2.39V45.27A4.18,4.18,0,0,0,27,42.88a2.2,2.2,0,0,0-1.79-.62h-1.3Z"/><path d="M55.82,16.25V32.53h7.8v8.85h-7.8V60.84h8v8.67H42.72V7.58h21v8.67Z"/><path d="M79.89,7.58q7.23,0,11.14,4.07c2.6,2.72,3.91,6.87,3.91,12.48v.44a25.64,25.64,0,0,1-.78,6.68,16,16,0,0,1-2.07,4.82,9.92,9.92,0,0,1-3,3,6.76,6.76,0,0,1-3.54,1.06v.62A7,7,0,0,1,89,42a10.19,10.19,0,0,1,3,3.14,18.58,18.58,0,0,1,2.07,4.77,22.34,22.34,0,0,1,.82,6.24V57q0,3.72.16,6.72a49.66,49.66,0,0,0,.65,5.84h-13a38.73,38.73,0,0,1-.7-6q-.12-3.13-.12-6.77V47.84a4.27,4.27,0,0,0-.44-2.3,2,2,0,0,0-1.75-.62h-1.3V69.51H65.33V7.58ZM78.43,36.07h1.3a2,2,0,0,0,1.75-.66,4.58,4.58,0,0,0,.44-2.35V19.26a4.57,4.57,0,0,0-.44-2.3,1.93,1.93,0,0,0-1.75-.71h-1.3Z"/><path d="M118.76,7.58l5.62,61.93h-13.1l-3-40.08h-.57l-2.92,40.08H95.5l5.86-61.93ZM103.64,53.94V45.18h8.78v8.76Z"/><path d="M150.73,16.25h-7.81V69.51h-13.1V16.25H122V7.58h28.71Z"/><ellipse class="cls-1" cx="126.35" cy="59.33" rx="8.03" ry="6"/><path class="cls-2" d="M145.12,64.26a1.72,1.72,0,0,0,.08.59,2.26,2.26,0,0,0,.17.43.93.93,0,0,0,.25.27.59.59,0,0,0,.32.11.66.66,0,0,0,.38-.11,1,1,0,0,0,.3-.31,1.83,1.83,0,0,0,.21-.53,3.56,3.56,0,0,0,.08-.79V56.6h-1.09V53.47h7.35v16h-4.28V67h-.31A3.79,3.79,0,0,1,147,69.17a4.61,4.61,0,0,1-2.55.76,5.14,5.14,0,0,1-2-.42,4.6,4.6,0,0,1-1.77-1.38,7.3,7.3,0,0,1-1.26-2.41,11.39,11.39,0,0,1-.49-3.62V47.24a11.22,11.22,0,0,1,.47-3.4,6.25,6.25,0,0,1,1.38-2.44A5.81,5.81,0,0,1,143,39.94a8.58,8.58,0,0,1,3-.49,8.41,8.41,0,0,1,3,.51,6.17,6.17,0,0,1,2.28,1.48,6.61,6.61,0,0,1,1.44,2.44,10.42,10.42,0,0,1,.5,3.36v4.91h-6.26V45a2.59,2.59,0,0,0-.08-.66,1.38,1.38,0,0,0-.19-.42.89.89,0,0,0-.28-.23.68.68,0,0,0-.35-.09.75.75,0,0,0-.33.09.92.92,0,0,0-.29.23,1.17,1.17,0,0,0-.19.42,2.21,2.21,0,0,0-.08.66Z"/><path class="cls-2" d="M160.29,44v7.79H164v4.23h-3.74v9.31h3.82v4.15H154V39.88h10V44Z"/><path class="cls-2" d="M179,39.88V69.51H172.4l-3.86-21h-.27l1,21h-4.4V39.88h6.69l3.89,20.83h.28l-1.09-20.83Z"/><path class="cls-2" d="M186.13,64.39a2.25,2.25,0,0,0,.08.63,1.56,1.56,0,0,0,.2.43.71.71,0,0,0,.29.25.68.68,0,0,0,.33.09.68.68,0,0,0,.35-.09.91.91,0,0,0,.27-.25,1.91,1.91,0,0,0,.2-.43,2.28,2.28,0,0,0,.07-.63V55.46h6.27V62.1a10.33,10.33,0,0,1-.51,3.41,6.31,6.31,0,0,1-1.44,2.43A6.11,6.11,0,0,1,190,69.43a9.43,9.43,0,0,1-6,0A5.71,5.71,0,0,1,181.76,68a6.72,6.72,0,0,1-1.39-2.46,11.26,11.26,0,0,1-.46-3.41V47.24a11.23,11.23,0,0,1,.46-3.4,6.4,6.4,0,0,1,1.39-2.44A5.78,5.78,0,0,1,184,39.94a8.62,8.62,0,0,1,3-.49,8.47,8.47,0,0,1,3,.51,6.21,6.21,0,0,1,2.27,1.48,6.35,6.35,0,0,1,1.44,2.44,10.14,10.14,0,0,1,.51,3.36v6.69h-6.27V45a2.62,2.62,0,0,0-.07-.66,1.37,1.37,0,0,0-.2-.42,1,1,0,0,0-.27-.23.68.68,0,0,0-.35-.09.68.68,0,0,0-.33.09.74.74,0,0,0-.29.23,1.17,1.17,0,0,0-.2.42,2.59,2.59,0,0,0-.08.66Zm-.35,8.25a3.79,3.79,0,0,1,2,.45,1.24,1.24,0,0,1,.72,1,1.15,1.15,0,0,1-.18.59,1.77,1.77,0,0,1-.48.51,2.64,2.64,0,0,1-.74.33,3.28,3.28,0,0,1-1,.13,4.4,4.4,0,0,1-.62,0,5.9,5.9,0,0,1-.66-.13V77.3a12.79,12.79,0,0,0,1.44.25,10.1,10.1,0,0,0,1.28.09,6.51,6.51,0,0,0,2-.28,4.77,4.77,0,0,0,1.48-.74,3.44,3.44,0,0,0,.93-1.06,2.4,2.4,0,0,0,.33-1.18,2.54,2.54,0,0,0-1.15-2,5.5,5.5,0,0,0-3.44-.89l.19-1.82h-1.67Z"/><path class="cls-3" d="M129.9,59.34a3.55,3.55,0,1,1-3.54-3.56A3.53,3.53,0,0,1,129.9,59.34Z"/><circle class="cls-4" cx="126.35" cy="59.33" r="4.79"/></svg>